# xmcd
#
# Track frame offsets:
#	150
#	13799
#	30265
#	51965
#	63432
#	87090
#	100138
#	116509
#	139072
#	158572
#	172984
#	183823
#	212200
#	220043
#	240966
#
# Disc length: 3360 seconds
#
# Revision: 0
# Processed by: cddbd v1.5.1PL0 Copyright (c) Steve Scherf et al.
# Submitted via: dBpowerAMP V4.0
#
DISCID=b80d1e0f
DTITLE=Marcos Coll - Adrian Costa - Los Reyes del KO
DYEAR=2002
DGENRE=Blues
TTITLE0=Turkey on the barn
TTITLE1=Hurry up Joe
TTITLE2=Fucked up
TTITLE3=I left my heart in San Francisco
TTITLE4=Blue shadows
TTITLE5=Born in Santiago
TTITLE6=Need my babe
TTITLE7=Revelation
TTITLE8=Twist and shout
TTITLE9=Reno factory
TTITLE10=Wade in the water
TTITLE11=There's a dead in my family
TTITLE12=Luther's thing
TTITLE13=Hey tomorrow night
TTITLE14=Cuncas blues special
EXTD=
EXTT0=
EXTT1=
EXTT2=
EXTT3=
EXTT4=
EXTT5=
EXTT6=
EXTT7=
EXTT8=
EXTT9=
EXTT10=
EXTT11=
EXTT12=
EXTT13=
EXTT14=
PLAYORDER=
